<?xml version="1.0" standalone="no"?>
<!DOCTYPE svg PUBLIC "-//W3C//DTD SVG 20010904//EN"
 "http://www.w3.org/TR/2001/REC-SVG-20010904/DTD/svg10.dtd">
<svg version="1.0" xmlns="http://www.w3.org/2000/svg"
 width="1380.000000pt" height="920.000000pt" viewBox="0 0 1380.000000 920.000000"
 preserveAspectRatio="xMidYMid meet">
<metadata>
Created by potrace 1.16, written by Peter Selinger 2001-2019
</metadata>
<g transform="translate(0.000000,920.000000) scale(0.100000,-0.100000)"
fill="#000000" stroke="none">
<path d="M6615 5230 l0 -1360 28 0 27 0 0 1360 0 1360 -27 0 -28 0 0 -1360z"/>
<path d="M2880 5961 l0 -489 55 -8 c31 -5 56 -13 57 -19 0 -5 -25 -18 -56 -29
l-56 -18 0 -252 0 -252 38 -18 c58 -28 194 -121 251 -172 l51 -46 0 31 c0 24
4 31 20 31 18 0 20 7 20 55 0 48 -2 55 -20 55 -18 0 -20 7 -20 75 0 68 2 75
20 75 18 0 20 7 20 55 l0 55 60 0 60 0 0 44 c0 25 5 48 10 51 6 4 10 -15 10
-49 0 -38 4 -56 13 -56 15 0 168 -27 202 -36 l25 -6 0 241 0 241 95 0 95 0 0
70 c0 63 2 70 20 70 19 0 20 7 20 120 l0 120 120 0 120 0 0 -120 0 -120 100 0
100 0 2 167 3 166 115 44 c63 23 118 43 122 43 4 0 8 -63 8 -140 0 -133 1
-140 20 -140 19 0 20 7 20 183 0 101 3 186 6 189 3 3 59 -12 125 -34 l119 -40
2 -281 3 -282 148 -3 147 -3 0 -164 0 -165 55 0 55 0 0 -40 0 -40 55 0 55 0 0
70 0 70 35 0 35 0 0 61 c0 37 4 58 10 54 6 -3 10 -31 10 -61 l0 -54 65 0 65 0
0 195 c0 167 2 195 15 195 8 0 15 9 15 20 0 11 5 20 10 20 6 0 10 -9 10 -21 0
-19 5 -20 75 -18 64 3 75 6 75 21 0 10 5 18 10 18 6 0 10 -9 10 -20 0 -13 7
-20 20 -20 20 0 20 -7 20 -360 l0 -360 90 0 90 0 0 -154 0 -155 53 -3 52 -3 3
-167 2 -168 -1304 0 -1305 0 -65 -36 -66 -36 -82 27 c-46 15 -125 46 -175 70
-85 40 -107 45 -85 19 5 -5 5 -74 0 -153 -5 -78 -7 -149 -4 -157 5 -12 261
-14 1716 -14 l1710 0 2 1225 3 1225 -1802 0 -1803 0 0 -489z"/>
<path d="M4620 5976 l0 -186 -35 0 -34 0 -3 138 -3 139 -107 -41 -108 -41 -2
-165 -3 -165 -112 -3 -113 -3 0 121 0 120 -110 0 -110 0 0 -120 c0 -113 -1
-120 -20 -120 -18 0 -20 -7 -20 -70 l0 -70 -90 0 -90 0 0 -234 c0 -134 4 -237
9 -241 5 -3 11 5 13 17 2 17 10 23 28 23 20 0 26 -6 31 -30 l6 -30 4 30 c3 24
9 30 29 30 21 0 26 -6 31 -35 l6 -35 4 35 c3 30 8 35 29 35 17 0 24 -5 22 -15
-6 -24 -2 -282 4 -291 3 -5 22 9 42 30 55 57 145 76 189 39 24 -20 14 -59 -24
-94 -20 -19 -35 -35 -32 -37 2 -3 61 -23 132 -46 l127 -43 0 -164 0 -164 165
0 165 0 0 270 0 270 299 0 300 0 3 37 3 37 104 38 c57 22 110 37 117 34 10 -4
14 -25 14 -76 l0 -70 45 0 45 0 0 -268 0 -267 200 -2 200 -2 2 162 c3 159 3
162 26 165 22 3 22 6 22 148 l0 144 -84 0 c-76 0 -84 -2 -89 -20 -5 -19 -12
-21 -99 -18 l-93 3 -3 48 c-2 26 1 47 5 48 4 0 46 2 93 3 72 1 85 4 88 19 3
15 -7 17 -92 17 l-96 0 0 50 0 50 96 0 c83 0 95 2 92 16 -2 13 -19 17 -93 18
l-90 1 -3 53 -3 52 -65 0 -64 0 0 -75 0 -75 -135 0 -135 0 0 45 0 45 -55 0
-55 0 0 165 0 165 -150 0 -150 0 0 284 0 284 -97 33 c-54 17 -104 34 -110 37
-10 3 -13 -37 -13 -182z m200 -241 l0 -35 -235 0 -235 0 0 28 c0 16 3 32 7 35
3 4 109 7 235 7 l228 0 0 -35z m0 -90 l0 -35 -235 0 -235 0 0 35 0 35 235 0
235 0 0 -35z m0 -90 l0 -35 -232 2 -233 3 -3 33 -3 32 235 0 236 0 0 -35z
m1030 -775 l0 -50 -95 0 -95 0 0 50 0 50 95 0 95 0 0 -50z m0 -140 l0 -50 -95
0 -95 0 0 50 0 50 95 0 95 0 0 -50z m0 -140 l0 -50 -95 0 -95 0 0 50 0 50 95
0 95 0 0 -50z"/>
<path d="M4360 5730 c0 -19 7 -20 225 -20 218 0 225 1 225 20 0 19 -7 20 -225
20 -218 0 -225 -1 -225 -20z"/>
<path d="M4367 5663 c-4 -3 -7 -15 -7 -25 0 -17 13 -18 225 -18 l225 0 0 25 0
25 -218 0 c-120 0 -222 -3 -225 -7z"/>
<path d="M4360 5560 c0 -19 7 -20 225 -20 218 0 225 1 225 20 0 19 -7 20 -225
20 -218 0 -225 -1 -225 -20z"/>
<path d="M5600 5450 l0 -190 25 0 25 0 0 190 0 190 -25 0 -25 0 0 -190z"/>
<path d="M5670 5535 l0 -105 86 0 85 0 -3 38 -3 37 -72 3 c-70 3 -73 4 -73 27
0 23 3 24 73 27 l72 3 3 38 3 37 -85 0 -86 0 0 -105z"/>
<path d="M7454 5402 c36 -100 61 -128 100 -111 41 19 56 -1 56 -77 0 -57 3
-65 25 -80 38 -25 92 -11 138 37 36 39 97 146 97 171 0 9 -63 25 -194 51 -107
21 -204 41 -215 44 -20 5 -20 4 -7 -35z"/>
<path d="M2625 5372 c-56 -4 -73 -14 -91 -58 -15 -35 -63 -54 -139 -54 -44 0
-47 -2 -42 -22 8 -30 -16 -72 -55 -96 -18 -11 -93 -44 -167 -73 -158 -62 -254
-122 -333 -207 -50 -54 -108 -152 -108 -181 0 -6 16 6 36 27 36 37 37 35 10
-31 -10 -26 -8 -31 20 -55 16 -15 88 -78 160 -141 l129 -115 7 50 c3 27 11 90
17 141 16 134 43 211 88 255 49 47 131 83 238 104 84 17 85 17 91 52 4 18 3
89 0 157 l-7 122 42 7 c54 9 99 36 134 82 15 19 25 36 24 37 -2 1 -26 1 -54
-1z"/>
<path d="M5380 5185 l0 -65 65 0 65 0 0 65 0 65 -65 0 -65 0 0 -65z"/>
<path d="M2827 5163 c-22 -103 -47 -143 -87 -143 -28 0 -30 -2 -30 -39 0 -36
2 -40 33 -46 17 -4 40 -9 49 -11 13 -4 21 7 33 48 15 49 34 268 23 268 -2 0
-12 -35 -21 -77z"/>
<path d="M3360 5029 l0 -49 252 0 c138 0 249 2 247 5 -3 2 -95 20 -204 39
-110 20 -221 40 -247 44 l-48 9 0 -48z"/>
<path d="M7600 4959 c-77 -22 -113 -39 -134 -60 -17 -15 -28 -31 -25 -34 3 -3
26 2 50 10 59 21 251 65 283 65 29 0 30 3 16 31 -15 27 -64 24 -190 -12z"/>
<path d="M3360 4905 l0 -65 250 0 251 0 -3 63 -3 62 -247 3 -248 2 0 -65z"/>
<path d="M5340 4926 c-80 -31 -85 -35 -88 -65 l-3 -31 90 0 91 0 0 65 c0 36
-1 65 -2 64 -2 0 -41 -15 -88 -33z"/>
<path d="M3360 4808 c0 -17 3 -20 9 -9 14 22 41 5 41 -25 0 -23 -3 -26 -25
-22 -19 4 -25 1 -25 -13 0 -18 13 -19 250 -19 l250 0 0 55 0 55 -250 0 -250 0
0 -22z"/>
<path d="M4650 4560 l0 -260 455 0 455 0 0 260 0 260 -455 0 -455 0 0 -260z"/>
<path d="M7955 4769 c52 -117 120 -396 141 -582 4 -32 10 -60 14 -62 12 -7 87
136 105 199 15 49 15 66 5 100 -21 72 -131 232 -239 347 l-51 54 25 -56z"/>
<path d="M3230 4679 c0 -30 30 -69 52 -69 5 0 13 -10 18 -22 l9 -23 0 23 c1
15 7 22 21 22 16 0 20 -7 20 -30 0 -16 -5 -30 -11 -30 -8 0 -8 -5 1 -15 8 -10
21 -13 37 -9 16 4 28 2 34 -7 8 -12 10 -12 18 0 5 8 15 11 23 9 8 -3 25 0 39
8 13 7 18 13 12 14 -8 0 -13 13 -13 30 0 23 4 30 20 30 15 0 20 -7 20 -25 0
-14 5 -25 10 -25 6 0 10 11 10 25 0 18 5 25 20 25 12 0 20 -7 20 -17 1 -17 1
-17 11 0 5 9 20 17 32 17 23 0 62 20 40 20 -8 0 -13 13 -13 31 0 26 3 30 22
27 14 -2 25 -13 29 -28 l7 -25 1 28 c1 20 6 27 20 27 11 0 23 -5 27 -11 3 -6
9 -7 13 -2 3 5 17 14 31 20 20 9 -41 12 -277 12 l-303 1 0 -31z"/>
<path d="M4023 4677 c-24 -26 -67 -47 -97 -47 -14 0 -28 -4 -31 -10 -4 -7 60
-10 186 -10 106 0 190 2 188 5 -3 2 -55 22 -117 43 -110 38 -112 38 -129 19z"/>
<path d="M6030 4445 l0 -155 50 0 50 0 0 155 0 155 -50 0 -50 0 0 -155z"/>
<path d="M3843 4533 c-7 -12 -13 -31 -13 -42 0 -14 -6 -21 -18 -21 -25 0 -52
-31 -52 -59 0 -18 -5 -22 -24 -19 -16 2 -51 -15 -102 -47 l-77 -50 143 -3 c79
-1 147 1 152 6 5 5 7 65 6 133 -3 105 -5 121 -15 102z"/>
<path d="M7484 4346 c-60 -26 -159 -106 -166 -133 -8 -28 43 -142 107 -238 21
-32 33 -62 32 -80 0 -17 0 -55 2 -85 l3 -55 30 64 c55 119 70 199 72 376 l1
160 -25 2 c-14 2 -39 -4 -56 -11z"/>
<path d="M9358 4216 c-125 -73 -230 -135 -234 -138 -6 -7 45 -108 55 -108 3 0
24 7 46 15 55 20 56 19 110 -21 l47 -37 112 7 c104 7 315 32 322 39 2 2 -27
55 -64 118 -38 63 -88 147 -111 187 -23 39 -45 72 -49 71 -4 0 -109 -60 -234
-133z"/>
<path d="M3870 4315 l0 -25 213 2 c211 3 212 3 215 26 l3 22 -215 0 -216 0 0
-25z"/>
<path d="M11434 4016 c-98 -20 -96 -19 -88 -73 3 -27 9 -51 13 -55 3 -3 42 0
86 8 135 23 125 16 111 76 -13 61 -21 64 -122 44z"/>
<path d="M7271 3722 c-16 -176 -17 -165 17 -148 15 8 47 35 72 60 38 40 41 46
23 46 -30 0 -83 47 -83 73 0 12 7 31 15 41 16 21 13 31 -14 46 -17 8 -19 0
-30 -118z"/>
<path d="M9250 3844 c0 -11 244 -424 251 -424 11 0 251 135 329 185 36 22 84
52 107 64 35 20 40 26 31 41 -9 13 -31 19 -97 24 -135 11 -277 34 -412 67
-137 33 -209 48 -209 43z"/>
<path d="M2805 3538 c-44 -9 -126 -17 -182 -17 l-101 -1 -12 -72 c-50 -310
-70 -367 -143 -404 -39 -20 -132 -14 -226 15 -36 11 -67 18 -70 16 -21 -21
139 -1114 246 -1677 l26 -138 98 0 c96 0 99 1 99 23 1 12 5 69 10 127 6 58 15
294 20 525 10 386 29 737 42 750 5 5 186 -388 229 -495 11 -30 41 -113 66
-185 78 -229 212 -484 353 -675 l60 -80 109 0 c61 0 113 4 116 10 3 5 -17 81
-44 167 -127 400 -285 996 -390 1468 -36 164 -52 219 -62 216 -8 -2 -42 -6
-75 -8 -45 -4 -63 -2 -70 8 -4 8 -11 110 -14 229 l-5 215 -80 -17z"/>
<path d="M7300 3195 c0 -119 23 -502 41 -675 6 -58 30 -265 54 -460 59 -474
68 -594 69 -859 l1 -225 -43 -33 c-24 -18 -75 -42 -115 -54 -45 -13 -80 -30
-92 -45 l-21 -24 -1646 0 -1647 0 -21 30 c-25 36 -60 55 -115 66 -30 5 -57 23
-110 74 -77 74 -141 120 -166 120 -18 0 -39 -40 -39 -75 0 -13 11 -66 25 -117
14 -51 25 -94 25 -95 0 -2 -214 -3 -475 -3 l-475 0 0 49 c0 75 -6 85 -37 61
-30 -23 -58 -25 -93 -5 -14 8 -28 14 -32 15 -5 0 -8 -27 -8 -60 l0 -60 -577
-2 c-506 -3 -578 -5 -578 -18 0 -13 637 -15 5675 -15 5038 0 5675 2 5675 15 0
13 -39 16 -275 20 -171 3 -261 8 -238 13 46 10 51 18 43 67 -8 47 -6 46 -128
24 l-89 -16 7 -44 6 -44 -1079 0 -1079 0 -6 57 c-3 31 -2 75 3 97 9 37 20 192
50 676 5 85 14 229 20 320 6 91 15 334 20 540 5 206 12 417 16 468 l7 92 -487
0 -486 0 0 -102 c0 -125 -25 -582 -45 -843 -24 -298 -62 -617 -102 -848 -35
-205 -39 -239 -32 -282 7 -36 -98 -92 -224 -120 -16 -3 -39 -17 -51 -30 -22
-23 -30 -25 -126 -25 -93 0 -102 2 -95 18 4 9 12 46 18 82 6 36 15 68 20 71 5
4 4 112 -2 275 -18 433 -39 620 -96 864 -19 80 -39 189 -45 243 -15 128 -17
479 -6 735 l9 204 -52 -26 c-89 -45 -170 -59 -346 -59 -176 -1 -274 15 -357
56 l-48 24 0 -112z m2054 -1275 c20 -146 59 -422 85 -614 27 -191 53 -351 60
-355 7 -5 8 -18 2 -41 -5 -19 -12 -47 -15 -62 l-6 -28 -274 0 -275 0 10 32 c5
18 9 45 9 60 0 16 4 28 9 28 37 0 205 487 275 798 23 103 31 146 57 347 11 84
17 111 24 103 1 -2 19 -122 39 -268z m-1464 -458 c27 -100 61 -244 75 -320 15
-75 30 -144 35 -154 14 -26 -80 -84 -177 -108 -23 -6 -50 -21 -61 -35 -16 -20
-29 -25 -62 -25 -39 0 -42 2 -36 23 3 12 9 48 13 80 4 37 10 57 19 57 7 0 15
4 18 8 12 21 101 595 107 696 1 22 21 -44 69 -222z"/>
</g>
</svg>
